<?xml version="1.0" standalone="no"?><!DOCTYPE svg PUBLIC "-//W3C//DTD SVG 1.1//EN" "http://www.w3.org/Graphics/SVG/1.1/DTD/svg11.dtd"><svg t="1714641700708" class="icon" viewBox="0 0 1024 1024" version="1.1" xmlns="http://www.w3.org/2000/svg" p-id="1335" width="64" height="64" xmlns:xlink="http://www.w3.org/1999/xlink"><path d="M512 512m-512 0a512 512 0 1 0 1024 0 512 512 0 1 0-1024 0Z" fill="#A7F9DE" p-id="1336"></path><path d="M907.636364 479.185455l-93.090909-93.09091V256a46.545455 46.545455 0 0 0-46.545455-46.545455h-130.792727l-93.090909-93.090909a46.545455 46.545455 0 0 0-65.861819 0l-93.090909 93.090909H256a46.545455 46.545455 0 0 0-46.545455 46.545455v130.792727l-93.090909 93.090909a46.545455 46.545455 0 0 0 0 65.861819l93.090909 93.090909V768a46.545455 46.545455 0 0 0 46.545455 46.545455h130.792727l93.090909 93.090909a46.545455 46.545455 0 0 0 65.861819 0l93.090909-93.090909H768a46.545455 46.545455 0 0 0 46.545455-46.545455v-130.792727l93.090909-93.090909a46.545455 46.545455 0 0 0 0-64.930909z m-205.730909-49.338182l-213.876364 213.876363a34.909091 34.909091 0 0 1-49.338182 0l-115.2-115.2a34.909091 34.909091 0 1 1 48.872727-49.338181l90.530909 90.530909L651.636364 380.276364a34.909091 34.909091 0 1 1 49.338181 49.338181z" fill="#1CD38D" p-id="1337"></path></svg>