<?xml version="1.0" standalone="no"?><!DOCTYPE svg PUBLIC "-//W3C//DTD SVG 1.1//EN" "http://www.w3.org/Graphics/SVG/1.1/DTD/svg11.dtd"><svg t="1714642206113" class="icon" viewBox="0 0 1024 1024" version="1.1" xmlns="http://www.w3.org/2000/svg" p-id="1925" xmlns:xlink="http://www.w3.org/1999/xlink" width="64" height="64"><path d="M584.068209 309.440084a115.19 93.6 18.107 1 0 58.180367-177.929438 115.19 93.6 18.107 1 0-58.180367 177.929438Z" fill="#73BCF9" p-id="1926"></path><path d="M578.956246 289.783631a103.73 84.29 18.107 1 0 52.393409-160.231542 103.73 84.29 18.107 1 0-52.393409 160.231542Z" fill="#74CBF7" p-id="1927"></path><path d="M572.356333 263.607771a85.28 69.3 18.107 1 0 43.075848-131.736218 85.28 69.3 18.107 1 0-43.075848 131.736218Z" fill="#A9E7FF" p-id="1928"></path><path d="M315.76 328.68L207.39 669.07l466.79 168.67 106.41-350.52-450.33-145.65" fill="#AECAFA" opacity=".76" p-id="1929"></path><path d="M379.59 292.2L270.46 615.04l366.19 164.61 104.93-341.8L379.59 292.2" fill="#CDDFF9" opacity=".77" p-id="1930"></path><path d="M602.11 372.42L492.97 695.26l98.54 84.39 104.93-341.8-94.33-65.43" fill="#E3EEFC" opacity=".98" p-id="1931"></path><path d="M314.15 341.57l11.29-76.92c2.34-15.95 9.21-30.94 20.03-42.9 31.21-34.48 111.52-82.93 299.25-20.35 0 0 188.67 74.91 166.37 190.97 0 0 1.72 46.62-37.73 111.35L314.15 341.57z" fill="#2680ED" p-id="1932"></path><path d="M314.15 341.57l9.98-68.02c4.32-29.46 20.69-55.89 45.41-72.49 42.26-28.39 123.79-50.12 275.18 0.34 0 0 156.95 58.9 134.65 174.95 0 0 1.72 46.62-37.73 111.35L314.15 341.57z" fill="#3882F9" p-id="1933"></path><path d="M392.581894 909.143097a265.93 165.63 18.107 1 0 102.953141-314.855266 265.93 165.63 18.107 1 0-102.953141 314.855266Z" fill="#6EB3FF" p-id="1934"></path><path d="M314.15 341.57l10.3-70.15c3.5-23.87 15.6-45.67 34.15-61.08 35.37-29.38 107.01-59.45 243.24-24 0 0 126.08 37.83 103.78 153.88 0 0 1.72 46.62-37.73 111.35l-353.74-110z" fill="#3998F7" opacity=".57" p-id="1935"></path><path d="M385.093709 933.47957a253.23 157.72 18.107 1 0 98.036403-299.818707 253.23 157.72 18.107 1 0-98.036403 299.818707Z" fill="#2281F2" p-id="1936"></path><path d="M324.17 286.37l0.93-12.95c1.29-17.89 7.44-37.5 20.02-50.28 28.69-29.12 88.3-68.54 163.73-35.17 0 0 80.57 35.81 68.48 145.22-0.26 2.37-0.46 4.74-0.52 7.12 0 0.21-0.01 0.42-0.02 0.65-1.54 54.16-58.13 89.02-107.35 66.34L368 360.56c-28.64-13.19-46.1-42.75-43.83-74.19z" fill="#73BCF9" opacity=".57" p-id="1937"></path><path d="M405.021727 872.534936a150.28 93.6 18.107 1 0 58.180367-177.929439 150.28 93.6 18.107 1 0-58.180367 177.929439Z" fill="#69A3FF" opacity=".38" p-id="1938"></path><path d="M328.9 416.75l-13.15-88.07s21.83-157.89 305.78-69.51c0 0 184.05 76.33 171.54 192.4 0 0-11.54 82.27-87.29 82.27L328.9 416.75z" fill="#1262D8" opacity=".58" p-id="1939"></path><path d="M780.59 487.22c-25.68 73.94-166.75 100.95-278.84 63.15-128.42-43.32-212.84-138.69-187.67-215.68 25.18-77 150.02-105.27 278.84-63.15S807.16 410.7 780.59 487.22z" fill="#3D85F9" p-id="1940"></path><path d="M488.281078 542.815019a228.34 141.69 18.107 1 0 88.072394-269.34639 228.34 141.69 18.107 1 0-88.072394 269.34639Z" fill="#6DA4FC" opacity=".59" p-id="1941"></path><path d="M464.348015 525.352342a198.64 131.58 18.107 1 0 81.788169-250.127729 198.64 131.58 18.107 1 0-81.788169 250.127729Z" fill="#6EBBF9" opacity=".27" p-id="1942"></path><path d="M439.741417 511.853727a171.24 125.71 18.107 1 0 78.139464-238.969121 171.24 125.71 18.107 1 0-78.139464 238.969121Z" fill="#6FD0F7" opacity=".21" p-id="1943"></path><path d="M417.248197 485.497254a142.72 104.77 18.107 1 0 65.123472-199.163112 142.72 104.77 18.107 1 0-65.123472 199.163112Z" fill="#9BDAF9" opacity=".33" p-id="1944"></path><path d="M524.46 334.09l82.96 12.06c4.69 0.68 7.13 5.95 4.61 9.97l-37.96 60.58c-2.51 4.01-0.07 9.29 4.61 9.97l26.79 3.89c5.14 0.75 7.41 6.88 4 10.8L497.04 570.28c-4.6 5.27-13.15 0.64-11.25-6.09l19.63-69.6c1-3.55-1.13-7.23-4.71-8.14l-52.9-13.35c-4.24-1.07-6.26-5.91-4.05-9.68l74.1-126.17a6.559 6.559 0 0 1 6.6-3.16z" fill="#F3C35C" p-id="1945"></path><path d="M526.58 329.51l77.59 11.84c5.85 0.89 8.91 7.45 5.85 12.51l-36.29 59.92c-3.1 5.12 0.07 11.74 6 12.53l19.43 2.59c6.52 0.87 9.49 8.62 5.22 13.62l-94.76 111c-5.85 6.85-16.9 0.79-14.25-7.83l16.55-53.86c1.42-4.61-1.37-9.44-6.07-10.53l-54.57-12.59c-5.46-1.26-8.13-7.46-5.29-12.29l72.18-122.91a8.317 8.317 0 0 1 8.41-4z" fill="#F7BD61" opacity=".66" p-id="1946"></path><path d="M523.12 332.52l78.79 12.03c5.46 0.83 8.31 6.94 5.45 11.67l-37.17 61.37c-2.89 4.78 0.07 10.95 5.6 11.69l21.3 2.84c6.08 0.81 8.85 8.04 4.87 12.7l-97.18 113.83c-5.46 6.39-15.76 0.73-13.29-7.3l17.52-57.01c1.32-4.3-1.28-8.81-5.66-9.82l-55.9-12.9c-5.09-1.18-7.58-6.96-4.94-11.47l72.76-123.89a7.746 7.746 0 0 1 7.85-3.74z" fill="#FCD081" opacity=".66" p-id="1947"></path><path d="M505.09 486.38l-56.42-14.24c-5.75-1.45-8.49-8.01-5.49-13.12l71.7-122.08a8.884 8.884 0 0 1 9.03-4.28l69.28 10.79c6.31 0.98 9.56 8.1 6.17 13.51l-37.94 60.53c-3.34 5.33-0.24 12.36 5.96 13.47l31.29 5.63" fill="#FCDCAE" opacity=".45" p-id="1948"></path><path d="M509.78 462.85l-51.72-12.57c-4-0.97-5.9-5.55-3.75-9.07L519 335.17a6.052 6.052 0 0 1 6.09-2.84l64.67 9.69c4.37 0.66 6.6 5.62 4.19 9.32l-35.68 54.81c-2.38 3.66-0.24 8.56 4.06 9.3l29.87 5.17" fill="#F9E8D2" opacity=".45" p-id="1949"></path><path d="M510.41 435.2l-38.23-9.29c-4.43-1.08-6.54-6.16-4.16-10.06l48.99-80.31a6.724 6.724 0 0 1 6.75-3.15l46.77 7.01c4.85 0.73 7.32 6.23 4.65 10.34l-28.76 44.19a6.71 6.71 0 0 0-0.8 5.63l8.82 29.06" fill="#F9E8D2" opacity=".76" p-id="1950"></path></svg>