<?xml version="1.0" standalone="no"?><!DOCTYPE svg PUBLIC "-//W3C//DTD SVG 1.1//EN" "http://www.w3.org/Graphics/SVG/1.1/DTD/svg11.dtd"><svg t="1714641600620" class="icon" viewBox="0 0 1024 1024" version="1.1" xmlns="http://www.w3.org/2000/svg" p-id="1618" width="128" height="128" xmlns:xlink="http://www.w3.org/1999/xlink"><path d="M764.288 966.528H263.296c-113.664 0-205.952-92.16-205.952-205.952V259.712C57.472 145.92 149.632 53.76 263.296 53.76h500.992C878.08 53.76 970.24 145.92 970.24 259.712v500.992c0 113.664-92.16 205.824-205.952 205.824z" fill="#1E1E1F" p-id="1619"></path><path d="M812.416 772.864H215.296c-32.512 0-58.88-26.368-58.88-58.88V306.304c0-32.512 26.368-58.88 58.88-58.88h596.992c32.512 0 58.88 26.368 58.88 58.88v407.552c0.128 32.64-26.24 59.008-58.752 59.008z" fill="#D5D1C8" p-id="1620"></path><path d="M788.736 712.32H238.976c-28.16 0-50.944-22.784-50.944-50.944V330.24c0-28.16 22.784-50.944 50.944-50.944h549.76c28.16 0 50.944 22.784 50.944 50.944v331.136c0 28.16-22.784 50.944-50.944 50.944z" fill="#0792C2" p-id="1621"></path><path d="M839.68 589.696H188.032V384.384c0-28.16 22.784-50.944 50.944-50.944h549.76c28.16 0 50.944 22.784 50.944 50.944v205.312z" fill="#FFAF2F" p-id="1622"></path><path d="M839.68 588.16H188.032v-149.76c0-28.16 22.784-50.944 50.944-50.944h549.76c28.16 0 50.944 22.784 50.944 50.944v149.76z" fill="#23B745" p-id="1623"></path><path d="M839.68 592.896H188.032v-100.352c0-28.16 22.784-50.944 50.944-50.944h549.76c28.16 0 50.944 22.784 50.944 50.944v100.352z" fill="#FF7664" p-id="1624"></path><path d="M869.632 495.744V721.92c0 28.032-22.912 50.944-50.944 50.944H208.896c-28.032 0-50.944-22.912-50.944-50.944V495.744h204.416c24.576 0 45.568 14.848 57.344 36.48 18.176 33.408 53.632 55.936 94.08 55.936 40.704 0 76.032-22.656 94.208-55.936 11.776-21.632 32.896-36.48 57.472-36.48h204.16z" fill="#D5D1C8" p-id="1625"></path></svg>