<?xml version="1.0" standalone="no"?><!DOCTYPE svg PUBLIC "-//W3C//DTD SVG 1.1//EN" "http://www.w3.org/Graphics/SVG/1.1/DTD/svg11.dtd"><svg t="1712547147249" class="icon" viewBox="0 0 1024 1024" version="1.1" xmlns="http://www.w3.org/2000/svg" p-id="26244" xmlns:xlink="http://www.w3.org/1999/xlink" width="20" height="20"><path d="M0 0m204.8 0l614.4 0q204.8 0 204.8 204.8l0 614.4q0 204.8-204.8 204.8l-614.4 0q-204.8 0-204.8-204.8l0-614.4q0-204.8 204.8-204.8Z" fill="#546DFF" p-id="26245"></path><path d="M664.8832 747.2384h-333.7216a151.68 151.68 0 0 1-59.9296-291.0976 212.48 212.48 0 0 1 403.6608-72.6528 182.016 182.016 0 0 1-10.0352 363.7504z m-215.3728-133.632a27.264 27.264 0 1 0 0 54.528h127.2832a27.264 27.264 0 0 0 0-54.528z" fill="#FFFFFF" p-id="26246"></path></svg>