<?xml version="1.0" standalone="no"?><!DOCTYPE svg PUBLIC "-//W3C//DTD SVG 1.1//EN" "http://www.w3.org/Graphics/SVG/1.1/DTD/svg11.dtd"><svg t="1712626174447" class="icon" viewBox="0 0 1024 1024" version="1.1" xmlns="http://www.w3.org/2000/svg" p-id="3246" xmlns:xlink="http://www.w3.org/1999/xlink" width="20" height="20"><path d="M0 0m256 0l512 0q256 0 256 256l0 512q0 256-256 256l-512 0q-256 0-256-256l0-512q0-256 256-256Z" fill="#FFB521" p-id="3247"></path><path d="M751.84 536.8V256.88h-152.56v232.8a93.44 93.44 0 0 1-3.728 26.16c-10.848 37.168-44.16 64.256-83.632 64.256-40.256 0-74.128-28.208-84.24-66.576a93.2 93.2 0 0 1-3.088-23.84v-232.8H272v279.888s3.328 200.576 252.768 150.832l11.248 77.808S688.88 791.888 752 600.832l-0.16-64.048" fill="#FFFFFF" p-id="3248"></path></svg>