<?xml version="1.0" standalone="no"?><!DOCTYPE svg PUBLIC "-//W3C//DTD SVG 1.1//EN" "http://www.w3.org/Graphics/SVG/1.1/DTD/svg11.dtd"><svg t="1712557243507" class="icon" viewBox="0 0 1024 1024" version="1.1" xmlns="http://www.w3.org/2000/svg" p-id="26930" xmlns:xlink="http://www.w3.org/1999/xlink" width="20" height="20"><path d="M0 0m170.666667 0l682.666666 0q170.666667 0 170.666667 170.666667l0 682.666666q0 170.666667-170.666667 170.666667l-682.666666 0q-170.666667 0-170.666667-170.666667l0-682.666666q0-170.666667 170.666667-170.666667Z" fill="#5ABBCB" p-id="26931"></path><path d="M458.666667 256c102.08 0 188.202667 65.024 215.210666 153.941333A181.333333 181.333333 0 1 1 714.666667 768h-448a138.666667 138.666667 0 0 1-30.506667-273.962667A201.813333 201.813333 0 0 1 234.666667 469.333333c0-117.824 100.288-213.333333 224-213.333333z" fill="#FFFFFF" p-id="26932"></path></svg>