<?xml version="1.0" standalone="no"?><!DOCTYPE svg PUBLIC "-//W3C//DTD SVG 1.1//EN" "http://www.w3.org/Graphics/SVG/1.1/DTD/svg11.dtd"><svg t="1714642195667" class="icon" viewBox="0 0 1024 1024" version="1.1" xmlns="http://www.w3.org/2000/svg" p-id="1743" xmlns:xlink="http://www.w3.org/1999/xlink" width="64" height="64"><path d="M837.43 899.02H185.87c-21.08 0-38.33-17.25-38.33-38.33s17.25-38.33 38.33-38.33h651.56c21.08 0 38.33 17.25 38.33 38.33-0.01 21.08-17.25 38.33-38.33 38.33z" fill="#F9B212" p-id="1744"></path><path d="M832.37 884.64H181.48c-17.13 0-31.14-14.01-31.14-31.14 0-17.13 14.01-31.14 31.14-31.14h650.89c17.13 0 31.14 14.01 31.14 31.14 0 17.13-14.01 31.14-31.14 31.14z" fill="#FCC860" opacity=".46" p-id="1745"></path><path d="M688.97 866.82h-516.4c-12.28 0-22.23-9.95-22.23-22.23 0-12.28 9.95-22.23 22.23-22.23h516.4c12.28 0 22.23 9.95 22.23 22.23 0 12.28-9.95 22.23-22.23 22.23z" fill="#FCD797" opacity=".46" p-id="1746"></path><path d="M871.54 384.2L541.3 714.43c-24.69 24.69-64.73 24.69-89.43 0l-318.5-318.5L463.61 65.69c24.69-24.69 64.73-24.69 89.43 0l318.5 318.51z" fill="#FCB61A" p-id="1747"></path><path d="M869.54 386.2L538.24 54.89c-17.63-17.63-46.2-17.63-63.83 0L131.37 397.93s34.17 64.59 102.31-29.1c50.24-69.08 174.16-184.58 235.79-240.48 20.92-18.98 52.46-20.12 74.69-2.69 71.9 56.35 221.69 180.93 253.78 264.41 0-0.01 49.52 79.5 71.6-3.87" fill="#FCAB08" p-id="1748"></path><path d="M888.79 807.46H135.58c-18.97 0-34.34-15.38-34.34-34.34l-30-421c0-29.01 33.75-44.95 56.16-26.52l362.97 273.87c12.68 10.43 30.96 10.43 43.63 0L896.97 325.6c22.41-18.43 56.16-2.49 56.16 26.52l-30 421c0 18.96-15.37 34.34-34.34 34.34z" fill="#FEC00D" p-id="1749"></path><path d="M126.79 327.84L472.16 590.7a85.646 85.646 0 0 0 81.42-5.82l7.05-4.5 339.51-252.22s22.55 8.92 0 26.2c-73.36 56.21-323.9 280.58-393.2 280.58S112.15 353.86 112.15 353.86s-15.86-49.66 14.64-26.02z" fill="#FFD576" opacity=".51" p-id="1750"></path><path d="M75.76 415.52l25.48 357.6 6.3 19.81 28.05 14.53H888.8l29.5-16.76 34.84-438.59s-50.75-28-64.07 240.29c0 0 19.16 135.08-76.65 130.29l-579.69-3.19-38.33-0.6s-45.79 18.82-46.85-92.97c-1.07-111.78-46.71-235.59-71.79-210.41z" fill="#FCA110" opacity=".3" p-id="1751"></path><path d="M75.76 415.52l25.48 357.6 6.3 19.81 28.05 14.53H888.8l29.5-16.76 34.84-438.59s-31.59-29.6-44.9 238.69c0 0 0 187.68-95.82 182.89l-579.69-3.19-38.33-0.6s-70.8-33.78-71.86-145.56c-1.07-111.78-21.7-234-46.78-208.82z" fill="#FCA110" opacity=".3" p-id="1752"></path><path d="M626.83 324.04L523.44 500.47c-6.26 10.68-21.7 10.68-27.97 0L392.08 324.04a16.204 16.204 0 0 1 2.52-19.65L498 200.99c6.33-6.33 16.59-6.33 22.92 0l103.39 103.39c5.21 5.22 6.25 13.3 2.52 19.66z" fill="#FF3803" opacity=".34" p-id="1753"></path><path d="M596.85 331.28l-76.98 131.37c-4.66 7.95-16.16 7.95-20.82 0l-76.98-131.37c-2.78-4.74-2-10.75 1.88-14.63l76.98-76.98c4.71-4.71 12.35-4.71 17.07 0l76.98 76.98c3.88 3.88 4.65 9.89 1.87 14.63z" fill="#FF3803" p-id="1754"></path><path d="M827.3 540.22L948.7 438.7l-19.94 250.97L825.28 586.6c-13.1-13.04-12.16-34.52 2.02-46.38z" fill="#FF3803" opacity=".2" p-id="1755"></path><path d="M844.01 545.3l100.78-88.08-16.26 213.91-86.03-89.54c-9.81-10.2-9.11-27.01 1.51-36.29z" fill="#FF3803" p-id="1756"></path><path d="M204.12 558.75L79.39 457.22l20.48 250.97 106.31-103.06c13.47-13.04 12.51-34.52-2.06-46.38z" fill="#FF3803" opacity=".2" p-id="1757"></path><path d="M179.93 563.83l-96.51-88.08 15.57 213.91 82.38-89.54c9.39-10.2 8.72-27.01-1.44-36.29z" fill="#FF3803" p-id="1758"></path></svg>