<?xml version="1.0" standalone="no"?><!DOCTYPE svg PUBLIC "-//W3C//DTD SVG 1.1//EN" "http://www.w3.org/Graphics/SVG/1.1/DTD/svg11.dtd"><svg t="1712546817353" class="icon" viewBox="0 0 1024 1024" version="1.1" xmlns="http://www.w3.org/2000/svg" p-id="21308" xmlns:xlink="http://www.w3.org/1999/xlink" width="20" height="20"><path d="M3.257972 240.634955C4.240649 124.603462 81.486631 2.664567 233.582375 2.192126c152.091965-0.510236 416.828966 0 555.65101 1.455118 138.746453 1.455118 232.293538 93.891021 232.293538 239.425506 0 145.538264 0.472441 385.001565 0.472441 535.456995 0 150.45165-97.957793 244.380466-262.805663 243.356214-164.84787-0.944882-362.732589 0.514016-508.879358 0C104.163796 1021.417298 6.682223 943.218874 3.768208 769.678091 0.778602 596.137308 2.271515 356.670227 3.257972 240.634955z" fill="#3475ED" p-id="21309"></path><path d="M80.190253 219.764404c48.702991 17.230866 181.817948 76.4674 187.959681 168.665193 0 34.654487-10.31811 50.154329-9.331654 95.383934 0.23811 61.205668 36.185196 126.61795 86.619211 166.185823 53.389605 45.237164 149.612595 76.70173 200.401885 117.569761 58.46929 38.037164 175.362515 158.989602 175.362515 158.989602s-86.891336-209.453853-133.114957-286.866134c74.294171-41.298897 357.77007-80.632439 357.770069-80.632439-25.829291-25.330393-168.551807-88.501415-253.94645-87.556534 41.102361-63.405353 120.593383-181.409759 120.593383-181.409759l-27.560314 4.172598c34.922834-75.208817 73.783935-135.193697 109.731021-183.609444-154.064878 40.784881-315.722827 126.100154-461.873375 245.087238-21.414803-32.451023-75.787085-102.270234-141.501729-100.577005-25.825511 0-34.960629 1.492913-51.654802 11.092913-47.99244-20.651338-110.241257-42.557479-159.458263-46.495747z" fill="#FCFCFC" p-id="21310"></path></svg>