<?xml version="1.0" standalone="no"?><!DOCTYPE svg PUBLIC "-//W3C//DTD SVG 1.1//EN" "http://www.w3.org/Graphics/SVG/1.1/DTD/svg11.dtd"><svg t="1714641952860" class="icon" viewBox="0 0 1024 1024" version="1.1" xmlns="http://www.w3.org/2000/svg" p-id="1371" xmlns:xlink="http://www.w3.org/1999/xlink" width="64" height="64"><path d="M606.4 555.08H418.1c-39 0-70.9-31.9-70.9-70.9l-50-313.9c0-39 31.9-70.9 70.9-70.9h288.3c39 0 70.9 31.9 70.9 70.9l-50 313.9c0 39-31.9 70.9-70.9 70.9z" fill="#6BC04A" p-id="1372"></path><path d="M566.2 99.48H367.9c-39 0-70.9 31.9-70.9 70.9l50 313.9c0 39 31.9 70.9 70.9 70.9 0.1-0.1 367.1-352.3 148.3-455.7z" fill="#85D663" opacity=".3" p-id="1373"></path><path d="M476.2 99.48H367.9c-39 0-70.9 31.9-70.9 70.9l31.4 195.9c0.1 0 251-152.5 147.8-266.8z" fill="#99DD7A" opacity=".3" p-id="1374"></path><path d="M481.3 938.28l-271-150.7c-19.1-11.1-30.9-31.5-30.9-53.6v-301.4c0-22.1 11.8-42.5 30.9-53.6l271-150.7c19.2-11.1 42.8-11.1 61.9 0l271 150.7c19.1 11.1 30.9 31.5 30.9 53.6v301.4c0 22.1-11.8 42.5-30.9 53.6l-271 150.7c-19.1 11-42.7 11-61.9 0z" fill="#FFD629" p-id="1375"></path><path d="M845 639.48v93.8c0 22.1-11.8 42.5-31 53.6l-271 150.7c-19.1 11.1-42.8 11.1-61.9 0l-271-150.7c-19.2-11.1-30.9-31.5-30.9-53.6v-89.5s21.4-9.5 52.8 50.9c24.3 46.8 151.1 98.5 204 136.6 27.3 19.6 42.6 29.2 76.2 29.2 8.8 0 39.4-7.4 52.6-12.1 47.3-16.6 192-109.8 213.8-140.8 25.7-36.1 37.2-68.1 66.4-68.1z" fill="#FF9A2C" opacity=".2" p-id="1376"></path><path d="M748.8 340.18l-206.6-113.5c-19.1-11.1-42.8-11.1-61.9 0l-271 150.7s-2.4 88.2 221.1 120.1 57.7 8.3 57.7 8.3 219.9-13.9 260.7-165.6z" fill="#F9F2D7" opacity=".2" p-id="1377"></path><path d="M542.3 464.38l18.9 38.2c4.9 9.9 14.3 16.7 25.2 18.3l42.2 6.1c27.4 4 38.4 37.7 18.5 57.1l-30.5 29.8c-7.9 7.7-11.5 18.8-9.6 29.6l7.2 42c4.7 27.3-24 48.2-48.6 35.3l-37.7-19.8c-9.8-5.1-21.4-5.1-31.1 0l-37.7 19.8c-24.6 12.9-53.2-7.9-48.6-35.3l7.2-42c1.9-10.9-1.7-21.9-9.6-29.6l-30.5-29.8c-19.9-19.4-8.9-53.1 18.6-57.1l42.2-6.1c10.9-1.6 20.3-8.4 25.2-18.3l18.9-38.2c12-24.9 47.5-24.9 59.8 0z" fill="#EA803F" opacity=".25" p-id="1378"></path><path d="M530.3 469.88l24.6 49.8c2.9 5.9 8.6 10.1 15.2 11l54.9 8c16.5 2.4 23.1 22.7 11.1 34.3l-39.8 38.8c-4.7 4.6-6.9 11.3-5.8 17.8l9.4 54.7c2.8 16.4-14.4 29-29.2 21.2l-49.2-25.8c-5.9-3.1-12.9-3.1-18.7 0l-49.1 25.8c-14.8 7.8-32-4.8-29.2-21.2l9.4-54.7c1.1-6.5-1-13.2-5.8-17.8l-39.8-38.8c-11.9-11.6-5.3-31.9 11.2-34.3l54.9-8c6.6-1 12.2-5.1 15.2-11l24.6-49.8c7.4-14.9 28.7-14.9 36.1 0z" fill="#EA803F" p-id="1379"></path></svg>