<?xml version="1.0" standalone="no"?><!DOCTYPE svg PUBLIC "-//W3C//DTD SVG 1.1//EN" "http://www.w3.org/Graphics/SVG/1.1/DTD/svg11.dtd"><svg t="1714642121107" class="icon" viewBox="0 0 1024 1024" version="1.1" xmlns="http://www.w3.org/2000/svg" p-id="1546" xmlns:xlink="http://www.w3.org/1999/xlink" width="64" height="64"><path d="M485.31 933.71h304.78c26.35 0 51.95 8.54 72.73 24.26 40.87 30.92 100.5 2.65 100.5-47.64V646.46c0-63.41-52.96-114.82-118.3-114.82h-318.8c-65.34 0-118.3 51.41-118.3 114.82V858.6c0 43.09 34.65 75.11 77.39 75.11z" fill="#F70035" p-id="1547"></path><path d="M555.74 915.52h238.83c27.33 0 53.88 8.86 75.43 25.16l16.43 12.43c31.26 23.65 76.88 2.03 76.88-36.44V650.73c0-65.77-54.93-119.09-122.7-119.09H555.74c-67.76 0-122.7 53.32-122.7 119.09v145.71c0 65.77 54.93 119.08 122.7 119.08z" fill="#F9194F" p-id="1548"></path><path d="M538.88 915.52h261.48c23.58 0 46.48 7.64 65.07 21.71 39.81 30.12 97.88 2.59 97.88-46.4V634.37c0-56.74-47.39-102.73-105.85-102.73H538.88c-58.46 0-105.85 45.99-105.85 102.73v178.42c0.01 56.74 47.4 102.73 105.85 102.73z" fill="#F7264E" p-id="1549"></path><path d="M558.8 901.82h248.09c22.9 0 45.14 7.42 63.2 21.08l44.22 33.46c19.93 15.08 49 1.29 49-23.23v-298.8c0-55.1-46.03-99.78-102.8-99.78H558.8c-56.77 0-102.8 44.67-102.8 99.78v167.71c0 55.11 46.02 99.78 102.8 99.78z" fill="#FC4C66" p-id="1550"></path><path d="M572.19 877.66h262.93c13.32 0 26.27 4.59 36.78 13.03l56.93 45.76c14.03 11.27 34.49 0.97 34.49-17.37V592.52c0-34.07-26.78-61.68-59.82-61.68H572.2c-33.04 0-59.82 27.62-59.82 61.68v223.45c-0.01 34.07 26.78 61.69 59.81 61.69z" fill="#FC4C66" p-id="1551"></path><path d="M740.41 707.73a70.15 68.09 0 1 0 140.3 0 70.15 68.09 0 1 0-140.3 0Z" fill="#F70035" p-id="1552"></path><path d="M755.89 707.73a55.65 54.01 0 1 0 111.3 0 55.65 54.01 0 1 0-111.3 0Z" fill="#F6973D" p-id="1553"></path><path d="M766.11 702.77a50.54 49.05 0 1 0 101.08 0 50.54 49.05 0 1 0-101.08 0Z" fill="#FCB17A" p-id="1554"></path><path d="M776.32 697.82a45.43 44.1 0 1 0 90.86 0 45.43 44.1 0 1 0-90.86 0Z" fill="#FFC197" p-id="1555"></path><path d="M790.79 692.38a36.31 35.24 0 1 0 72.62 0 36.31 35.24 0 1 0-72.62 0Z" fill="#FFDBC2" opacity=".82" p-id="1556"></path><path d="M512.38 712.65a70.15 68.09 0 1 0 140.3 0 70.15 68.09 0 1 0-140.3 0Z" fill="#F70035" p-id="1557"></path><path d="M527.85 712.65a55.65 54.01 0 1 0 111.3 0 55.65 54.01 0 1 0-111.3 0Z" fill="#F6973D" p-id="1558"></path><path d="M538.08 707.69a50.54 49.05 0 1 0 101.08 0 50.54 49.05 0 1 0-101.08 0Z" fill="#FCB17A" p-id="1559"></path><path d="M548.29 702.74a45.43 44.1 0 1 0 90.86 0 45.43 44.1 0 1 0-90.86 0Z" fill="#FFC197" p-id="1560"></path><path d="M562.76 697.3a36.31 35.24 0 1 0 72.62 0 36.31 35.24 0 1 0-72.62 0Z" fill="#FFDBC2" opacity=".82" p-id="1561"></path><path d="M806.39 810.76H331.1c-41.09 0-81.01 13.72-113.42 38.98-63.73 49.68-156.72 4.26-156.72-76.55V349.23c0-101.89 82.6-184.48 184.48-184.48h497.15c101.89 0 184.48 82.6 184.48 184.48v340.85c0 69.23-54.03 120.68-120.68 120.68z" fill="#F70035" p-id="1562"></path><path d="M696.56 781.54H324.11c-42.62 0-84.02 14.23-117.64 40.43l-25.63 19.98c-48.76 38.01-119.89 3.26-119.89-58.56v-427.3c0-105.68 85.67-191.34 191.34-191.34h444.26c105.68 0 191.34 85.67 191.34 191.34V590.2c0.02 105.67-85.65 191.34-191.33 191.34z" fill="#F9194F" p-id="1563"></path><path d="M722.84 781.54H315.08c-36.77 0-72.48 12.27-101.48 34.88-62.08 48.39-152.64 4.15-152.64-74.55V329.8c0-91.16 73.9-165.06 165.06-165.06h496.82c91.16 0 165.06 73.9 165.06 165.06v286.68c0.01 91.16-73.89 165.06-165.06 165.06z" fill="#F7264E" p-id="1564"></path><path d="M691.79 759.52H304.9c-35.71 0-70.39 11.92-98.56 33.87l-68.96 53.76c-31.08 24.23-76.42 2.08-76.42-37.32V329.74c0-88.54 71.77-160.31 160.31-160.31h470.52c88.54 0 160.31 71.77 160.31 160.31v269.47c0.01 88.54-71.77 160.31-160.31 160.31z" fill="#FC4C66" p-id="1565"></path><path d="M670.9 720.7H260.88c-20.78 0-40.96 7.37-57.35 20.94l-88.78 73.53c-21.87 18.11-53.78 1.55-53.78-27.91v-524.7c0-54.74 41.77-99.11 93.29-99.11H670.9c51.52 0 93.29 44.37 93.29 99.11v359.03c0 54.74-41.77 99.11-93.29 99.11z" fill="#FC4C66" p-id="1566"></path><path d="M299.17 447.68m-109.4 0a109.4 109.4 0 1 0 218.8 0 109.4 109.4 0 1 0-218.8 0Z" fill="#F70035" p-id="1567"></path><path d="M297.65 447.68m-86.78 0a86.78 86.78 0 1 0 173.56 0 86.78 86.78 0 1 0-173.56 0Z" fill="#F6973D" p-id="1568"></path><path d="M289.68 439.7m-78.81 0a78.81 78.81 0 1 0 157.62 0 78.81 78.81 0 1 0-157.62 0Z" fill="#FCB17A" p-id="1569"></path><path d="M281.72 431.75m-70.85 0a70.85 70.85 0 1 0 141.7 0 70.85 70.85 0 1 0-141.7 0Z" fill="#FFC197" p-id="1570"></path><path d="M273.38 423m-56.63 0a56.63 56.63 0 1 0 113.26 0 56.63 56.63 0 1 0-113.26 0Z" fill="#FFDBC2" opacity=".82" p-id="1571"></path><path d="M654.79 455.58m-109.4 0a109.4 109.4 0 1 0 218.8 0 109.4 109.4 0 1 0-218.8 0Z" fill="#F70035" p-id="1572"></path><path d="M653.26 455.58m-86.78 0a86.78 86.78 0 1 0 173.56 0 86.78 86.78 0 1 0-173.56 0Z" fill="#F6973D" p-id="1573"></path><path d="M645.29 447.61m-78.81 0a78.81 78.81 0 1 0 157.62 0 78.81 78.81 0 1 0-157.62 0Z" fill="#FCB17A" p-id="1574"></path><path d="M637.34 439.66m-70.85 0a70.85 70.85 0 1 0 141.7 0 70.85 70.85 0 1 0-141.7 0Z" fill="#FFC197" p-id="1575"></path><path d="M628.99 430.91m-56.63 0a56.63 56.63 0 1 0 113.26 0 56.63 56.63 0 1 0-113.26 0Z" fill="#FFDBC2" opacity=".82" p-id="1576"></path></svg>